<svg width="19" height="12" viewBox="0 0 19 12" fill="none" xmlns="http://www.w3.org/2000/svg">
<path d="M9.33333 11C13.9357 11 17.6667 6 17.6667 6C17.6667 6 13.9357 1 9.33333 1C4.73096 1 1 6 1 6C1 6 4.73096 11 9.33333 11Z" stroke="white" stroke-width="1.5" stroke-linejoin="round"/>
<path d="M9.33333 8.08335C10.4839 8.08335 11.4167 7.1506 11.4167 6.00002C11.4167 4.84944 10.4839 3.91669 9.33333 3.91669C8.18275 3.91669 7.25 4.84944 7.25 6.00002C7.25 7.1506 8.18275 8.08335 9.33333 8.08335Z" stroke="white" stroke-width="1.5" stroke-linejoin="round"/>
<path d="M9.33333 8.08335C10.4839 8.08335 11.4167 7.1506 11.4167 6.00002C11.4167 4.84944 10.4839 3.91669 9.33333 3.91669C8.18275 3.91669 7.25 4.84944 7.25 6.00002C7.25 7.1506 8.18275 8.08335 9.33333 8.08335Z" stroke="white" stroke-width="1.5" stroke-linejoin="round"/>
</svg>
