<svg width="32" height="32" viewBox="0 0 32 32" fill="none" xmlns="http://www.w3.org/2000/svg">
<path d="M24.0999 2.07227L29.6639 7.87227V29.9283H8.87891V30.0003H29.7349V7.94527L24.0999 2.07227Z" fill="#909090"/>
<path d="M9.30811 29.428V2.5H23.8179L29.1641 8.07402V29.428H9.30811Z" fill="#F4F4F4" stroke="#CFCFCF"/>
<path d="M8.65489 3.5H2.26489V10.327H22.3649V3.5H8.65489Z" fill="#7A7B7C"/>
<path d="M22.472 10.2109H2.39502V3.37891H22.472V10.2109Z" fill="#DD2025"/>
<path d="M9.05212 4.53467H7.74512V9.33467H8.77312V7.71567L9.00012 7.72867C9.22069 7.72488 9.43919 7.68537 9.64712 7.61167C9.82942 7.54897 9.99713 7.44998 10.1401 7.32067C10.2856 7.19749 10.4003 7.04203 10.4751 6.86667C10.5754 6.57517 10.6112 6.26537 10.5801 5.95867C10.5739 5.73958 10.5355 5.5226 10.4661 5.31467C10.403 5.16458 10.3093 5.02927 10.191 4.91737C10.0728 4.80546 9.93247 4.7194 9.77912 4.66467C9.64653 4.61667 9.50953 4.58184 9.37012 4.56067C9.26454 4.54438 9.15794 4.53569 9.05112 4.53467M8.86212 6.82867H8.77312V5.34867H8.96612C9.0513 5.34253 9.13677 5.35561 9.21622 5.38694C9.29566 5.41826 9.36706 5.46704 9.42512 5.52967C9.54544 5.69069 9.60971 5.88668 9.60812 6.08767C9.60812 6.33367 9.60812 6.55667 9.38612 6.71367C9.22618 6.80164 9.04414 6.84224 8.86212 6.82867ZM12.5331 4.52167C12.4221 4.52167 12.3141 4.52967 12.2381 4.53267L12.0001 4.53867H11.2201V9.33867H12.1381C12.4889 9.34829 12.8382 9.28883 13.1661 9.16367C13.43 9.05899 13.6637 8.89025 13.8461 8.67267C14.0235 8.45313 14.1508 8.19751 14.2191 7.92367C14.2977 7.61354 14.336 7.29459 14.3331 6.97467C14.3525 6.59683 14.3233 6.21806 14.2461 5.84767C14.1729 5.57504 14.0358 5.32377 13.8461 5.11467C13.6973 4.94584 13.5152 4.80964 13.3111 4.71467C13.1359 4.63359 12.9516 4.57383 12.7621 4.53667C12.6868 4.52423 12.6105 4.51854 12.5341 4.51967M12.3521 8.45667H12.2521V5.39267H12.2651C12.4713 5.36895 12.6799 5.40615 12.8651 5.49967C13.0008 5.608 13.1113 5.74447 13.1891 5.89967C13.2731 6.06301 13.3215 6.24228 13.3311 6.42567C13.3401 6.64567 13.3311 6.82567 13.3311 6.97467C13.3352 7.14631 13.3241 7.31797 13.2981 7.48767C13.2673 7.6619 13.2103 7.83047 13.1291 7.98767C13.0372 8.13383 12.913 8.25698 12.7661 8.34767C12.6427 8.42747 12.4966 8.4647 12.3501 8.45367M17.4301 4.53867H15.0001V9.33867H16.0281V7.43467H17.3281V6.54267H16.0281V5.43067H17.4281V4.53867" fill="#464648"/>
<path d="M21.7809 20.2555C21.7809 20.2555 24.9689 19.6775 24.9689 20.7665C24.9689 21.8555 22.9939 21.4125 21.7809 20.2555ZM19.4239 20.3385C18.9174 20.4504 18.4238 20.6143 17.9509 20.8275L18.3509 19.9275C18.7509 19.0275 19.1659 17.8005 19.1659 17.8005C19.6432 18.6038 20.1986 19.3581 20.8239 20.0525C20.3524 20.1228 19.885 20.219 19.4239 20.3405V20.3385ZM18.1619 13.8385C18.1619 12.8895 18.4689 12.6305 18.7079 12.6305C18.9469 12.6305 19.2159 12.7455 19.2249 13.5695C19.1471 14.3981 18.9736 15.2148 18.7079 16.0035C18.3441 15.3413 18.1557 14.597 18.1609 13.8415L18.1619 13.8385ZM13.5129 24.3545C12.5349 23.7695 15.5639 21.9685 16.1129 21.9105C16.1099 21.9115 14.5369 24.9665 13.5129 24.3545ZM25.8999 20.8955C25.8899 20.7955 25.7999 19.6885 23.8299 19.7355C23.0088 19.7223 22.1881 19.7801 21.3769 19.9085C20.5912 19.1169 19.9146 18.224 19.3649 17.2535C19.7112 16.2529 19.9208 15.2102 19.9879 14.1535C19.9589 12.9535 19.6719 12.2655 18.7519 12.2755C17.8319 12.2855 17.6979 13.0905 17.8189 14.2885C17.9375 15.0935 18.161 15.8796 18.4839 16.6265C18.4839 16.6265 18.0589 17.9495 17.4969 19.2655C16.9349 20.5815 16.5509 21.2715 16.5509 21.2715C15.5737 21.5896 14.6537 22.0623 13.8259 22.6715C13.0019 23.4385 12.6669 24.0275 13.1009 24.6165C13.4749 25.1245 14.7839 25.2395 15.9539 23.7065C16.5756 22.9147 17.1435 22.0822 17.6539 21.2145C17.6539 21.2145 19.4379 20.7255 19.9929 20.5915C20.5479 20.4575 21.2189 20.3515 21.2189 20.3515C21.2189 20.3515 22.8479 21.9905 24.4189 21.9325C25.9899 21.8745 25.9139 20.9935 25.9039 20.8975" fill="#DD2025"/>
<path d="M23.9541 2.07617V7.94917H29.5871L23.9541 2.07617Z" fill="#909090"/>
<path d="M24.031 2V7.873H29.664L24.031 2Z" fill="#F4F4F4"/>
<path d="M8.97497 4.45655H7.66797V9.25655H8.69997V7.63855L8.92797 7.65155C9.14854 7.64775 9.36704 7.60824 9.57497 7.53455C9.75726 7.47182 9.92496 7.37283 10.068 7.24355C10.2124 7.12004 10.326 6.9646 10.4 6.78955C10.5003 6.49805 10.5361 6.18825 10.505 5.88155C10.4987 5.66246 10.4603 5.44547 10.391 5.23755C10.3278 5.08745 10.2342 4.95215 10.1159 4.84024C9.9976 4.72833 9.85732 4.64228 9.70397 4.58755C9.57077 4.53908 9.4331 4.50391 9.29297 4.48255C9.18739 4.46626 9.08079 4.45757 8.97397 4.45655M8.78497 6.75055H8.69597V5.27055H8.88997C8.97515 5.26441 9.06062 5.27748 9.14007 5.30881C9.21952 5.34014 9.29091 5.38892 9.34897 5.45155C9.46929 5.61256 9.53356 5.80855 9.53197 6.00955C9.53197 6.25555 9.53197 6.47855 9.30997 6.63555C9.15004 6.72351 8.96799 6.76312 8.78597 6.74955M12.456 4.44355C12.345 4.44355 12.237 4.45155 12.161 4.45455L11.926 4.46055H11.146V9.26055H12.064C12.4148 9.27016 12.7641 9.2107 13.092 9.08555C13.3559 8.98087 13.5896 8.81213 13.772 8.59455C13.9493 8.375 14.0766 8.11939 14.145 7.84555C14.2235 7.53542 14.2618 7.21646 14.259 6.89655C14.2784 6.51871 14.2491 6.13994 14.172 5.76955C14.0988 5.49691 13.9616 5.24564 13.772 5.03655C13.6232 4.86771 13.441 4.73152 13.237 4.63655C13.0617 4.55546 12.8774 4.4957 12.688 4.45855C12.6126 4.4461 12.5363 4.44041 12.46 4.44155M12.278 8.37855H12.178V5.31455H12.191C12.3971 5.29083 12.6057 5.32803 12.791 5.42155C12.9266 5.52987 13.0372 5.66635 13.115 5.82155C13.1989 5.98488 13.2473 6.16415 13.257 6.34755C13.266 6.56755 13.257 6.74755 13.257 6.89655C13.261 7.06818 13.25 7.23985 13.224 7.40955C13.1931 7.58378 13.1362 7.75235 13.055 7.90955C12.9631 8.0557 12.8389 8.17886 12.692 8.26955C12.5686 8.34935 12.4225 8.38657 12.276 8.37555M17.353 4.46055H14.923V9.26055H15.951V7.35655H17.251V6.46455H15.951V5.35255H17.351V4.46055" fill="white"/>
</svg>
