<svg width="32" height="31" viewBox="0 0 32 31" fill="none" xmlns="http://www.w3.org/2000/svg">
<path d="M11.042 22.8545H9.95508V22.1689H11.042C11.21 22.1689 11.3467 22.1416 11.4521 22.0869C11.5576 22.0303 11.6348 21.9521 11.6836 21.8525C11.7324 21.7529 11.7568 21.6406 11.7568 21.5156C11.7568 21.3887 11.7324 21.2705 11.6836 21.1611C11.6348 21.0518 11.5576 20.9639 11.4521 20.8975C11.3467 20.8311 11.21 20.7979 11.042 20.7979H10.2598V24.375H9.38086V20.1094H11.042C11.376 20.1094 11.6621 20.1699 11.9004 20.291C12.1406 20.4102 12.3242 20.5752 12.4512 20.7861C12.5781 20.9971 12.6416 21.2383 12.6416 21.5098C12.6416 21.7852 12.5781 22.0234 12.4512 22.2246C12.3242 22.4258 12.1406 22.5811 11.9004 22.6904C11.6621 22.7998 11.376 22.8545 11.042 22.8545ZM14.0391 21.8965V24.375H13.1953V21.2051H13.9893L14.0391 21.8965ZM14.9941 21.1846L14.9795 21.9668C14.9385 21.9609 14.8887 21.9561 14.8301 21.9521C14.7734 21.9463 14.7217 21.9434 14.6748 21.9434C14.5557 21.9434 14.4521 21.959 14.3643 21.9902C14.2783 22.0195 14.2061 22.0635 14.1475 22.1221C14.0908 22.1807 14.0479 22.252 14.0186 22.3359C13.9912 22.4199 13.9756 22.5156 13.9717 22.623L13.8018 22.5703C13.8018 22.3652 13.8223 22.1768 13.8633 22.0049C13.9043 21.8311 13.9639 21.6797 14.042 21.5508C14.1221 21.4219 14.2197 21.3223 14.335 21.252C14.4502 21.1816 14.582 21.1465 14.7305 21.1465C14.7773 21.1465 14.8252 21.1504 14.874 21.1582C14.9229 21.1641 14.9629 21.1729 14.9941 21.1846ZM16.2832 21.2051V24.375H15.4365V21.2051H16.2832ZM15.3838 20.3789C15.3838 20.2559 15.4268 20.1543 15.5127 20.0742C15.5986 19.9941 15.7139 19.9541 15.8584 19.9541C16.001 19.9541 16.1152 19.9941 16.2012 20.0742C16.2891 20.1543 16.333 20.2559 16.333 20.3789C16.333 20.502 16.2891 20.6035 16.2012 20.6836C16.1152 20.7637 16.001 20.8037 15.8584 20.8037C15.7139 20.8037 15.5986 20.7637 15.5127 20.6836C15.4268 20.6035 15.3838 20.502 15.3838 20.3789ZM17.8066 21.8818V24.375H16.9629V21.2051H17.7539L17.8066 21.8818ZM17.6836 22.6787H17.4551C17.4551 22.4443 17.4854 22.2334 17.5459 22.0459C17.6064 21.8564 17.6914 21.6953 17.8008 21.5625C17.9102 21.4277 18.04 21.3252 18.1904 21.2549C18.3428 21.1826 18.5127 21.1465 18.7002 21.1465C18.8486 21.1465 18.9844 21.168 19.1074 21.2109C19.2305 21.2539 19.3359 21.3223 19.4238 21.416C19.5137 21.5098 19.582 21.6338 19.6289 21.7881C19.6777 21.9424 19.7021 22.1309 19.7021 22.3535V24.375H18.8525V22.3506C18.8525 22.21 18.833 22.1006 18.7939 22.0225C18.7549 21.9443 18.6973 21.8896 18.6211 21.8584C18.5469 21.8252 18.4551 21.8086 18.3457 21.8086C18.2324 21.8086 18.1338 21.8311 18.0498 21.876C17.9678 21.9209 17.8994 21.9834 17.8447 22.0635C17.792 22.1416 17.752 22.2334 17.7246 22.3389C17.6973 22.4443 17.6836 22.5576 17.6836 22.6787ZM21.8965 21.2051V21.8027H20.0508V21.2051H21.8965ZM20.5078 20.4229H21.3516V23.4199C21.3516 23.5117 21.3633 23.582 21.3867 23.6309C21.4121 23.6797 21.4492 23.7139 21.498 23.7334C21.5469 23.751 21.6084 23.7598 21.6826 23.7598C21.7354 23.7598 21.7822 23.7578 21.8232 23.7539C21.8662 23.748 21.9023 23.7422 21.9316 23.7363L21.9346 24.3574C21.8623 24.3809 21.7842 24.3994 21.7002 24.4131C21.6162 24.4268 21.5234 24.4336 21.4219 24.4336C21.2363 24.4336 21.0742 24.4033 20.9355 24.3428C20.7988 24.2803 20.6934 24.1807 20.6191 24.0439C20.5449 23.9072 20.5078 23.7275 20.5078 23.5049V20.4229Z" fill="#c58018"/>
<path d="M27.6923 4.76923H4.46154C3.27827 4.76923 2.14346 5.2246 1.30675 6.03515C0.470054 6.8457 0 7.94505 0 9.09135V20.8654C0 21.9722 0.453845 23.0336 1.26169 23.8162C2.06954 24.5988 3.16522 25.0385 4.30769 25.0385H4.92308V27.9954C4.92308 28.7923 5.24985 29.5565 5.8315 30.12C6.41315 30.6834 7.20204 31 8.02462 31H23.9754C24.798 31 25.5869 30.6834 26.1685 30.12C26.7502 29.5565 27.0769 28.7923 27.0769 27.9954V25.0385H27.6923C28.8348 25.0385 29.9305 24.5988 30.7383 23.8162C31.5462 23.0336 32 21.9722 32 20.8654V8.94231C32 7.83554 31.5462 6.7741 30.7383 5.9915C29.9305 5.20889 28.8348 4.76923 27.6923 4.76923ZM24.6154 27.9954C24.6148 28.1596 24.5472 28.317 24.4273 28.4331C24.3074 28.5493 24.1449 28.6148 23.9754 28.6154H8.02462C7.85506 28.6148 7.69263 28.5493 7.57274 28.4331C7.45285 28.317 7.38522 28.1596 7.38462 27.9954V16.12C7.38522 15.9557 7.45285 15.7984 7.57274 15.6822C7.69263 15.5661 7.85506 15.5006 8.02462 15.5H23.9754C24.1449 15.5006 24.3074 15.5661 24.4273 15.6822C24.5472 15.7984 24.6148 15.9557 24.6154 16.12V27.9954ZM26.6154 11.9171C26.2388 11.9464 25.8621 11.8631 25.5359 11.6785C25.2098 11.4938 24.95 11.2167 24.7915 10.8845C24.6331 10.5523 24.5837 10.181 24.6499 9.82073C24.7162 9.46045 24.8949 9.12854 25.162 8.86977C25.4292 8.611 25.7718 8.43785 26.1437 8.37366C26.5156 8.30948 26.8989 8.35736 27.2418 8.51085C27.5847 8.66433 27.8708 8.91603 28.0614 9.23198C28.252 9.54793 28.338 9.91292 28.3077 10.2777C28.2726 10.7011 28.083 11.0986 27.7729 11.399C27.4628 11.6994 27.0525 11.8831 26.6154 11.9171ZM22.7692 0H9.23077C8.19539 0.00149358 7.19509 0.363626 6.41245 1.0203C5.62981 1.67697 5.11703 2.58439 4.96769 3.57692H27.0323C26.883 2.58439 26.3702 1.67697 25.5875 1.0203C24.8049 0.363626 23.8046 0.00149358 22.7692 0Z" fill="#6d52e7"/>
</svg>
